
<svg xmlns="http://www.w3.org/2000/svg" version="1.1" xmlns:xlink="http://www.w3.org/1999/xlink" preserveAspectRatio="none" x="0px" y="0px" width="500px" height="500px" viewBox="0 0 500 500">
<defs>
<g id="Symbol_2_0_Layer6_0_FILL">
<path fill="#FFFFFF" stroke="none" d="
M 7.55 -108.45
L 1.05 -108.45 1.05 -92.2
Q 0.85 -92.2 0.7 -92.15 -30.8 -90.95 -53.45 -68.3 -76 -45.75 -77.25 -14.25 -77.25 -14.1 -77.25 -14 -77.3 -13.65 -77.3 -13.25
L -94.15 -13.25 -94.15 -6.75 -77.25 -6.75
Q -77.25 -6.5 -77.25 -6.25 -77.25 -5.85 -77.2 -5.5 -75.55 25.15 -53.45 47.3 -30.8 69.9 0.7 71.15 0.85 71.15 1.05 71.15
L 1.05 88.45 7.55 88.45 7.55 71.15
Q 8.4 71.1 9.2 71.1 40 69.45 62.15 47.3 84.3 25.15 86 -5.5 86 -6.1 86.05 -6.75
L 102.75 -6.75 102.75 -13.25 86.05 -13.25
Q 86.05 -13.65 86.05 -14 84.85 -45.65 62.15 -68.3 40 -90.5 9.2 -92.1 8.4 -92.15 7.55 -92.2
L 7.55 -108.45
M 7.55 -51.95
L 9.05 -84.8
Q 8.4 -85.95 9.2 -85.9 37.4 -84.3 57.75 -63.9 78.6 -43.1 79.8 -14 79.8 -13.65 79.8 -13.25
L 46.25 -13.25 46.25 -6.75 79.8 -6.75
Q 79.75 -6.1 79.7 -5.5 78.05 22.55 57.75 42.9 37.4 63.2 9.2 64.85 8.4 64.85 7.55 64.9
L 7.55 31.95 1.05 31.95 1.05 64.9
Q 0.85 64.9 0.7 64.9 -28.25 63.65 -49.05 42.9 -69.35 22.55 -71 -5.5 -71 -5.85 -71.05 -6.25 -71.05 -6.5 -71.05 -6.75
L -37.65 -6.75 -37.65 -13.25 -71.1 -13.25
Q -71.1 -13.65 -71.05 -14 -71.05 -14.15 -71.05 -14.25 -69.8 -43.2 -49.05 -63.9 -28.25 -84.75 0.7 -85.95 0.85 -86 1.05 -86
L 1.05 -51.95 7.55 -51.95 Z"/>
</g>

<g id="Symbol_2_0_Layer5_0_FILL">
<path fill="#000000" stroke="none" d="
M 7.55 -108.45
L 1.05 -108.45 1.05 -92.2
Q 0.85 -92.2 0.7 -92.15 -30.8 -90.95 -53.45 -68.3 -76 -45.75 -77.25 -14.25 -77.25 -14.1 -77.25 -14 -77.3 -13.65 -77.3 -13.25
L -94.15 -13.25 -94.15 -6.75 -77.25 -6.75
Q -77.25 -6.5 -77.25 -6.25 -77.25 -5.85 -77.2 -5.5 -75.55 25.15 -53.45 47.3 -30.8 69.9 0.7 71.15 0.85 71.15 1.05 71.15
L 1.05 88.45 7.55 88.45 7.55 71.15
Q 8.4 71.1 9.2 71.1 40 69.45 62.15 47.3 84.3 25.15 86 -5.5 86 -6.1 86.05 -6.75
L 102.75 -6.75 102.75 -13.25 86.05 -13.25
Q 86.05 -13.65 86.05 -14 84.85 -45.65 62.15 -68.3 40 -90.5 9.2 -92.1 8.4 -92.15 7.55 -92.2
L 7.55 -108.45
M 7.55 -51.95
L 7.55 -86
Q 8.4 -85.95 9.2 -85.9 37.4 -84.3 57.75 -63.9 78.6 -43.1 79.8 -14 79.8 -13.65 79.8 -13.25
L 46.25 -13.25 46.25 -6.75 79.8 -6.75
Q 79.75 -6.1 79.7 -5.5 78.05 22.55 57.75 42.9 37.4 63.2 9.2 64.85 8.4 64.85 7.55 64.9
L 7.55 31.95 1.05 31.95 1.05 64.9
Q 0.85 64.9 0.7 64.9 -28.25 63.65 -49.05 42.9 -69.35 22.55 -71 -5.5 -71 -5.85 -71.05 -6.25 -71.05 -6.5 -71.05 -6.75
L -37.65 -6.75 -37.65 -13.25 -71.1 -13.25
Q -71.1 -13.65 -71.05 -14 -71.05 -14.15 -71.05 -14.25 -69.8 -43.2 -49.05 -63.9 -28.25 -84.75 0.7 -85.95 0.85 -86 1.05 -86
L 1.05 -51.95 7.55 -51.95 Z"/>
</g>

<g id="Symbol_2_0_Layer4_0_FILL">
<path fill="#FFFFFF" stroke="none" d="
M 30.3 -85.1
Q 31.2 -81 39.7 -65.5 53.5 -34.4 23.95 -28.65 20.15 -32 18.7 -35.75 23.95 -33.2 29.8 -35.75 17.65 -41.75 11.8 -48.65 15.85 -49.15 25.3 -48.65 13.65 -55.75 1.05 -55.5 4.65 -57.25 10.55 -58.15 15.3 -62.2 17.8 -66.25 11.1 -63.95 -0.45 -63 -0.75 -62.1 -2.7 -61.5 -3.9 -60.8 -5.95 -61.5 -0.4 -65.4 8.05 -68.15 15.05 -76.6 15.45 -82.15 2.4 -68.35 -13.55 -65 -0.75 -72.6 3.45 -85.65 -8.75 -73.65 -21.55 -66.25
L -17.05 -77.9
Q -27.35 -64.85 -43.7 -54.4 -49.95 -39.7 -53.3 -47.9 -61 -35.9 -44.55 -25.5
L -44.55 -32.65
Q -34.15 -42.1 -21.3 -35.15 -21.2 -52.9 -13.05 -29.9 -17.1 -18.95 -30.8 -11.9 -26.7 -10.95 -25.55 -9.65 -26.3 -6.9 -29.45 -5.75 -20.95 1.25 -17.55 8.85 -24.7 10 -33.2 10.35 -56.05 38.85 -31.05 38.1 -41.5 31.85 -34.8 25.6 -33.65 34.4 -23.7 30.1 -26.35 30.15 -28.2 29 -26.75 22.15 -30.7 18.25 6.75 20.2 1.1 34.55 -28.05 36.95 -15.2 50.15 -17 41.35 -10.25 41.9 -14.5 46.9 -7.2 50.15 -8.5 48.75 -8.8 47.2 -8.15 46.8 -7.55 46.4 1.35 49.05 0.5 57.75 -19.6 69.15 -45.3 57.5 -40.45 62.1 -41.55 63.75 -50.85 57.35 -63.45 53.35 -59.25 58.6 -58.45 61.6 -69.25 54.85 -82.05 56.6 -76.6 59.15 -74.3 61.95 -90.55 60.55 -99.95 65 -91.75 65.3 -88.95 67 -91.6 69.5 -96.45 70.1 -108.65 71.35 -113.2 75.7 -111.4 75 -110.55 75.7 -122.6 83.3 -127.6 91.75 -124 88.95 -118.25 88.35 -110.45 87.75 -102.85 85.45 -93.9 82.4 -87.2 77.85 -93.3 79.15 -97.3 77.85 -76.2 67.05 -47.3 73.85 -50.7 76.15 -57.05 77.85 -44.7 80.1 -26.55 77.85 -28.6 81.05 -35.3 84.25 -22.65 83.8 -4.8 76.25 -6.65 80.3 -10.95 83.75 -2.05 82.45 18.45 69.6 17.8 74.7 15.2 79.75 21.3 77.1 29.55 64.75 30.7 64.25 31.8 66.6 35.2 61.75 36.45 55.5 38.2 57.45 38.75 63.45 43.8 55.3 45.95 38.85
L 52.3 43.25
Q 52.75 32.45 47.8 18.75 50.35 19.1 57.2 25 53.85 10.75 43.3 0.6 47.4 0.65 53.95 2.6 51.25 -2.8 44.7 -7.4 57.85 -2.4 67.05 4.6 66.4 -5.95 53.05 -14.15 62.55 -16.75 78.65 -16 108.55 11.8 106.95 54.6 117.85 21.1 104.6 -7.65 133.1 9.85 138.1 55.15 150.95 -51.45 41 -85.15 37.8 -91.35 60.2 -99.9 28.35 -100.1 30.3 -85.1
M -40.95 -45.4
Q -39.2 -50.05 -32.55 -52.75 -35.2 -47.75 -40.95 -45.4 Z"/>
</g>

<g id="Symbol_2_0_Layer3_0_FILL">
<path fill="#000000" stroke="none" d="
M 30.3 -85.1
Q 31.2 -81 39.7 -65.5 53.5 -34.4 23.95 -28.65 20.15 -32 18.7 -35.75 23.95 -35 29.8 -35.75 17.65 -41.75 11.8 -48.65 15.85 -49.15 25.3 -48.65 13.65 -55.75 1.05 -55.5 4.65 -57.25 10.55 -58.15 11.7 -59.1 12.7 -60.1 15.9 -63.15 17.8 -66.25 11.65 -63.1 -5.3 -61.9
L -5.1 -62.05
Q 0.2 -65.6 8.05 -68.15 8.45 -68.65 8.85 -69.1 15.05 -76.95 15.45 -82.15 7.4 -73.65 -1.75 -69.1 -7.45 -66.3 -13.55 -65 -11 -66.95 -8.7 -69.1 -1.2 -76.2 3.45 -85.65 -6.55 -75.85 -16.9 -69.1 -17.75 -68.55 -18.55 -68.05 -20.05 -67.1 -21.55 -66.25
L -17.05 -77.9
Q -27.35 -64.85 -43.7 -54.4 -49.95 -39.7 -53.3 -47.9 -61 -35.9 -44.55 -25.5
L -44.55 -32.65
Q -34.15 -42.1 -21.3 -35.15 -21.2 -52.9 -13.05 -29.9 -17.1 -18.95 -30.8 -11.9 -26.7 -10.95 -25.55 -9.65 -26.3 -6.9 -29.45 -5.75 -20.95 1.25 -17.55 8.85 -24.7 10 -33.2 10.35 -56.05 38.85 -31.05 38.1 -41.5 31.85 -34.8 25.6 -33.65 34.4 -23.7 30.1 -26.35 30.15 -28.2 29 -26.75 22.15 -30.7 18.25 6.75 20.2 1.1 34.55 -28.05 36.95 -15.2 50.15 -17 41.35 -10.25 41.9 -14.5 46.9 -7.2 50.15 -8.5 48.75 -8.8 47.2 -8.15 46.8 -7.55 46.4 1.35 49.05 0.5 57.75 -19.6 69.15 -45.3 57.5 -40.45 62.1 -41.55 63.75 -50.85 57.35 -63.45 53.35 -59.25 58.6 -58.45 61.6 -69.25 54.85 -82.05 56.6 -76.6 59.15 -74.3 61.95 -90.55 60.55 -99.95 65 -91.75 65.3 -88.95 67 -91.6 69.5 -96.45 70.1 -108.65 71.35 -113.2 75.7 -111.4 75 -110.55 75.7 -122.6 83.3 -127.6 91.75 -124 88.95 -118.25 88.35 -110.45 87.75 -102.85 85.45 -93.9 82.4 -87.2 77.85 -93.3 79.15 -97.3 77.85 -76.2 67.05 -47.3 73.85 -50.7 76.15 -57.05 77.85 -44.7 80.1 -26.55 77.85 -28.6 81.05 -35.3 84.25 -22.65 83.8 -4.8 76.25 -6.65 80.3 -10.95 83.75 -2.05 82.45 18.45 69.6 17.8 74.7 15.2 79.75 21.3 77.1 29.55 64.75 30.7 64.25 31.8 66.6 35.2 61.75 36.45 55.5 38.2 57.45 39.55 62.25 43.8 55.3 45.95 38.85
L 52.3 43.25
Q 52.75 32.45 47.8 18.75 50.35 19.1 57.2 25 53.85 10.75 43.3 0.6 47.4 0.65 53.95 2.6 51.25 -2.8 44.7 -7.4 57.85 -2.4 67.05 4.6 66.4 -5.95 53.05 -14.15 61.9 -17.6 78.05 -17.4 108.55 11.8 106.95 54.6 117.85 21.1 104.6 -7.65 133.1 9.85 138.1 55.15 150.95 -51.45 41 -85.15 37.8 -91.35 60.2 -99.9 28.35 -100.1 30.3 -85.1
M -32.55 -52.75
Q -35.2 -47.75 -40.95 -45.4 -39.2 -50.05 -32.55 -52.75 Z"/>
</g>

<g id="Symbol_2_0_Layer2_0_FILL">
<path fill="#FFFFFF" stroke="none" d="
M 5.5 -48.3
L 3.3 -48.3 3.3 -37.35
Q -7.1 -37 -14.6 -29.55 -21.95 -22.1 -22.35 -11.8
L -33.2 -11.8 -33.2 -9.6 -22.35 -9.6
Q -22.35 -9.3 -22.35 -9 -21.85 1.05 -14.6 8.3 -7.1 15.8 3.3 16.2
L 3.3 26.9 5.5 26.9 5.5 16.2
Q 15.85 15.8 23.3 8.3 30.8 0.85 31.15 -9.6
L 42 -9.6 42 -11.8 31.15 -11.8
Q 30.7 -22.1 23.3 -29.55 15.85 -37 5.5 -37.35
L 5.5 -48.3
M 5.5 -31.95
Q 13.65 -31.6 19.5 -25.75 25.35 -19.85 25.8 -11.8
L 14 -11.8 14 -9.6 25.8 -9.6
Q 25.45 -1.35 19.5 4.55 13.65 10.45 5.5 10.85
L 5.5 -1.1 3.3 -1.1 3.3 10.85
Q -4.9 10.45 -10.8 4.55 -16.5 -1.15 -17 -9 -17 -9.3 -17 -9.6
L -5.2 -9.6 -5.2 -11.8 -17 -11.8
Q -16.6 -19.85 -10.8 -25.75 -4.9 -31.6 3.3 -31.95
L 3.3 -20.3 5.5 -20.3 5.5 -31.95
M 4.35 -13.65
Q 3.1 -13.65 2.2 -12.75 1.35 -11.85 1.35 -10.6 1.35 -9.35 2.2 -8.5 3.1 -7.6 4.35 -7.6 5.6 -7.6 6.5 -8.5 7.35 -9.35 7.35 -10.6 7.35 -11.85 6.5 -12.75 5.6 -13.65 4.35 -13.65 Z"/>
</g>

<g id="Symbol_2_0_Layer1_0_FILL">
<path fill="#FFFFFF" stroke="none" d="
M -88.05 142.95
L -88.05 144.2
Q -86.5 144.15 -84.95 144.1 -83.4 144.1 -82.1 144.1 -80.4 144.1 -78.55 144.1 -76.6 144.15 -74.55 144.2
L -74.55 142.95
Q -75.1 142.8 -75.45 142.45 -75.75 142.15 -75.8 141.7 -75.75 141 -75.55 140.2 -75.3 139.4 -75.05 138.65
L -70.9 124.25 -61.2 145.55 -59.25 145.55 -48.65 124.25 -45.55 136.85
Q -45.35 137.65 -45.15 138.5 -45 139.35 -44.95 139.95 -44.95 141.25 -45.35 141.9 -45.75 142.6 -46.4 142.95
L -46.4 144.2
Q -44.65 144.15 -42.85 144.1 -41.05 144.1 -39.4 144.1 -37.1 144.1 -34.7 144.1 -32.35 144.15 -30.1 144.2
L -30.1 142.95
Q -30.9 142.45 -31.6 141.7 -32.3 140.95 -32.7 139.85
L -45.25 99.45 -46.8 99.45 -59.55 125.7 -71.8 99.45 -73.5 99.45 -85.6 138.7
Q -86.15 140.55 -86.6 141.4 -87.05 142.3 -87.4 142.55 -87.8 142.85 -88.05 142.95
M -93.75 101.95
L -95.15 101.95
Q -95.35 102.25 -95.7 102.6 -96 102.9 -96.55 102.95 -97.2 102.9 -98.7 102.4 -100.2 101.9 -102.2 101.4 -104.2 100.9 -106.5 100.85 -109.5 100.8 -112.25 101.2 -114.95 101.55 -117.5 102.6 -120.05 103.65 -122.5 105.7 -125.1 107.8 -126.95 110.7 -128.75 113.55 -129.7 116.7 -130.65 119.9 -130.65 122.95 -130.65 129.15 -128.15 134.2 -125.6 139.2 -120.6 142.2 -115.65 145.2 -108.35 145.3 -103 145.3 -98.6 144.55 -94.2 143.75 -90.15 141.55
L -90.15 123.05 -105.15 123.05 -105.15 124.3
Q -103.15 124.65 -102.5 126.35 -101.85 128.05 -101.95 130.95
L -101.95 134.5
Q -102.85 135 -104.3 135.45 -105.75 135.9 -108.1 135.9 -111 135.9 -113.35 134.5 -115.75 133.15 -117.15 130.3 -118.6 127.4 -118.65 122.95 -118.6 120.45 -117.95 118.2 -117.3 115.95 -116.2 114.45 -114.6 112.2 -111.95 111.2 -109.35 110.2 -105.85 110.25 -102.25 110.2 -99.75 111.2 -97.2 112.15 -95.15 114.3
L -93.75 114.3 -93.75 101.95
M 131.55 117.6
L 125.8 117.6 125.8 111.05 136.4 111.05
Q 138.1 111.05 139 111.65 139.85 112.25 140.4 113.4
L 141.65 113.4 141.65 101.95 110.8 101.95 110.8 105.2
Q 112.45 103.5 112.4 105.1 112.35 106.75 112.45 108.9 112.6 111.1 114 113.35
L 114 132.7
Q 114.05 135.45 113.9 137.65 113.75 139.8 113 141.15 112.35 142.55 110.8 142.85
L 110.8 144.2 141.6 144.2 142.8 131.75 141.5 131.6
Q 141 133.4 139.3 134.25 137.6 135.05 133.95 135.05
L 133.95 129.3
Q 128 135.1 127.25 135 126.55 134.85 126.15 134.3 125.8 133.75 125.8 132.45
L 125.8 126.7 131.8 126.7
Q 133.2 126.7 134.3 126.8 135.4 126.85 136.25 127.35 137.15 127.9 137.7 129.2
L 139.05 129.2
Q 139 126.3 138.95 124 138.9 121.7 138.9 120.15 138.9 118.8 138.95 117.4 139 116.05 139.05 114.75
L 137.7 114.75
Q 137.1 116.4 135.65 117.05 134.25 117.6 131.55 117.6
M 1.05 136.35
Q 1.85 133.9 1.85 130.75 1.8 126.85 -0.8 123.65 -2.5291015625 121.562109375 -5.25 119.9
L -3.45 119.9 -3.45 112.2
Q -2.5955078125 113.00625 -1.85 114.05
L -0.4 114.05 -0.4 101.95 -1.85 101.95
Q -2.15 102.05 -2.55 102.15 -3 102.3 -3.5 102.3 -4.1 102.25 -5.3 101.95 -6.55 101.6 -8.55 101.3 -10.6 100.95 -13.65 100.9 -17.6 100.9 -20.65 102.45 -23.7 104 -25.45 106.9 -27.2 109.8 -27.25 113.9 -27.25 115.65 -26.65 117.3 -26.05 119 -25.05 120.3 -24.05 121.65 -22.75 122.4 -19.8 124 -17.1 125.55 -14.4 127.1 -12 128.6 -10.55 129.4 -9.7 130.2 -8.85 131 -8.85 132.65 -8.85 134.4 -10.55 135.5 -12.25 136.6 -15.5 136.65 -19.6 136.65 -22.25 135.5 -24.95 134.35 -26.75 131.9
L -27.95 132.1 -26.75 142.85
Q -23.95 143.85 -20.95 144.55 -17.9 145.25 -14.6 145.3 -10.6 145.3 -7.45 144.25 -4.3 143.25 -1.95 140.95 0.25 138.8 1.05 136.35
M -5.95 110.45
Q -5.66328125 110.5904296875 -5.4 110.75
L -12.6 110.75 -12.6 116.25
Q -14.1109375 115.45234375 -15.4 114.55 -15.95 114.2 -16.1 113.7 -16.25 113.2 -16.25 112.55 -16.25 111.95 -15.8 111.25 -15.4 110.6 -14.8 110.1 -13.8 109.4 -12.85 109.35 -11.9 109.25 -11 109.25 -8.3 109.25 -5.95 110.45
M 71.95 101.95
L 71.95 103.2
Q 73.0033203125 103.3974609375 73.65 104.05
L 67.85 104.05
Q 68.5123046875 103.40078125 69.55 103.2
L 69.55 101.95
Q 67.25 102 65 102.05 62.75 102.05 60.65 102.05 58.55 102.05 56.2 102.05 53.85 102 51.35 101.95
L 51.35 103.2
Q 52.3876953125 103.40078125 53.05 104.05
L 47.65 104.05
Q 48.3123046875 103.40078125 49.35 103.2
L 49.35 101.95
Q 47.1 102 44.9 102.05 42.7 102.05 40.65 102.05 38.85 102.05 36.8 102.05 34.7 102 32.5 101.95
L 32.5 103.2
Q 33.95 103.75 34.55 105 35.2 106.25 35.3 108.3 35.45 110.35 35.4 113.35
L 35.4 124.1 9.1 100.9 7.55 100.9 7.55 132.8
Q 7.55 135.6 7.45 137.75 7.3 139.95 6.6 141.3 5.9 142.6 4.3 142.95
L 4.3 144.2
Q 6.45 144.15 8.6 144.1 10.8 144.1 13.05 144.1 15.05 144.1 17.15 144.1 19.2 144.15 21.35 144.2
L 21.35 142.95
Q 19.35 142.3 18.8 140.3 18.25 138.35 18.3 135.65 18.3 135 18.35 134.25 18.35 133.45 18.35 132.8
L 18.35 122.25 44.55 145.15 46.25 145.15 46.25 142.25 52.85 142.25
Q 52.24765625 142.776171875 51.35 142.95
L 51.35 144.2
Q 53.55 144.15 55.85 144.1 58.1 144.1 60.3 144.1 62.6 144.1 64.95 144.1 67.3 144.15 69.55 144.2
L 69.55 142.95
Q 68.651953125 142.7703125 68.05 142.25
L 73.5 142.25
Q 72.86875 142.755078125 71.95 142.95
L 71.95 144.2
Q 74.75 144.1 77.4 144.1 80.1 144.1 82.65 144.1 84.6 144.1 86.55 144.1 88.45 144.15 90.25 144.2
L 90.25 142.95
Q 88.7 142.55 88 141.25 87.3 139.95 87.1 137.85 86.95 135.7 86.95 132.8
L 86.95 110.55
Q 87.75 110.45 88.5 110.4 89.25 110.35 89.95 110.35 92.95 110.4 94.65 111.8 94.9123046875 112.016015625 95.1 112.25
L 90.05 112.25 90.05 119.15 95.25 119.15
Q 95.1697265625 119.2802734375 95.05 119.4 93.75 120.75 91.15 120.75 90.7 120.75 90.3 120.6 89.95 120.55 89.7 120.45
L 88.4 120.85 90.9 129.7
Q 91.65 129.85 92.55 129.95 93.35 130.1 94.05 130.1 100.9 130.05 104.55 126.3 108.2 122.5 108.25 115.85 108.2 111.95 106.55 108.9 104.9 105.9 101.9 104.15 98.85 102.35 94.7 102.1 92.7 102.05 90.75 102 88.75 101.95 86.85 101.95
L 71.95 101.95
M 96 117.9
L 96 113.5
Q 96.376953125 114.381640625 96.4 115.4 96.4 116.8396484375 96 117.9 Z"/>
</g>

<g id="Symbol_2_0_Layer0_0_FILL">
<path fill="#000000" stroke="none" d="
M -84.95 144.1
Q -83.4 144.1 -82.1 144.1 -80.4 144.1 -78.55 144.1 -76.6 144.15 -74.55 144.2
L -74.55 142.95
Q -75.1 142.8 -75.45 142.45 -75.75 142.15 -75.8 141.7 -75.75 141 -75.55 140.2 -75.3 139.4 -75.05 138.65
L -70.9 124.25 -61.2 145.55 -59.25 145.55 -48.65 124.25 -45.55 136.85
Q -45.35 137.65 -45.15 138.5 -45 139.35 -44.95 139.95 -44.95 141.25 -45.35 141.9 -45.75 142.6 -46.4 142.95
L -46.4 144.2
Q -44.65 144.15 -42.85 144.1 -41.05 144.1 -39.4 144.1 -37.1 144.1 -34.7 144.1 -32.35 144.15 -30.1 144.2
L -30.1 142.95
Q -30.9 142.45 -31.6 141.7 -32.3 140.95 -32.7 139.85
L -45.25 99.45 -46.8 99.45 -59.55 125.7 -71.8 99.45 -73.5 99.45 -85.6 138.7
Q -86.15 140.55 -86.6 141.4 -87.05 142.3 -87.4 142.55 -87.8 142.85 -88.05 142.95
L -88.05 144.2
Q -86.5 144.15 -84.95 144.1
M -96.55 102.95
Q -97.2 102.9 -98.7 102.4 -100.2 101.9 -102.2 101.4 -104.2 100.9 -106.5 100.85 -109.5 100.8 -112.25 101.2 -114.95 101.55 -117.5 102.6 -120.05 103.65 -122.5 105.7 -125.1 107.8 -126.95 110.7 -128.75 113.55 -129.7 116.7 -130.65 119.9 -130.65 122.95 -130.65 129.15 -128.15 134.2 -125.6 139.2 -120.6 142.2 -115.65 145.2 -108.35 145.3 -103 145.3 -98.6 144.55 -94.2 143.75 -90.15 141.55
L -90.15 123.05 -105.15 123.05 -105.15 124.3
Q -103.15 124.65 -102.5 126.35 -101.85 128.05 -101.95 130.95
L -101.95 134.5
Q -102.85 135 -104.3 135.45 -105.75 135.9 -108.1 135.9 -111 135.9 -113.35 134.5 -115.75 133.15 -117.15 130.3 -118.6 127.4 -118.65 122.95 -118.6 120.45 -117.95 118.2 -117.3 115.95 -116.2 114.45 -114.6 112.2 -111.95 111.2 -109.35 110.2 -105.85 110.25 -102.25 110.2 -99.75 111.2 -97.2 112.15 -95.15 114.3
L -93.75 114.3 -93.75 101.95 -95.15 101.95
Q -95.35 102.25 -95.7 102.6 -96 102.9 -96.55 102.95
M 131.55 117.6
L 125.8 117.6 125.8 111.05 136.4 111.05
Q 138.1 111.05 139 111.65 139.85 112.25 140.4 113.4
L 141.65 113.4 141.65 101.95 110.8 101.95 110.8 103.2
Q 112.45 103.5 113.1 104.85 113.8 106.25 113.9 108.45 114.05 110.6 114 113.35
L 114 132.7
Q 114.05 135.45 113.9 137.65 113.75 139.8 113 141.15 112.35 142.55 110.8 142.85
L 110.8 144.2 141.6 144.2 142.8 131.75 141.5 131.6
Q 141 133.4 139.3 134.25 137.6 135.05 133.95 135.05
L 129 135.05
Q 128 135.1 127.25 135 126.55 134.85 126.15 134.3 125.8 133.75 125.8 132.45
L 125.8 126.7 131.8 126.7
Q 133.2 126.7 134.3 126.8 135.4 126.85 136.25 127.35 137.15 127.9 137.7 129.2
L 139.05 129.2
Q 139 126.3 138.95 124 138.9 121.7 138.9 120.15 138.9 118.8 138.95 117.4 139 116.05 139.05 114.75
L 137.7 114.75
Q 137.1 116.4 135.65 117.05 134.25 117.6 131.55 117.6
M 1.05 136.35
Q 1.85 133.9 1.85 130.75 1.8 126.85 -0.8 123.65 -3.45 120.45 -8.45 118.25 -10.35 117.45 -12.1 116.5 -13.9 115.6 -15.4 114.55 -15.95 114.2 -16.1 113.7 -16.25 113.2 -16.25 112.55 -16.25 111.95 -15.8 111.25 -15.4 110.6 -14.8 110.1 -13.8 109.4 -12.85 109.35 -11.9 109.25 -11 109.25 -8.3 109.25 -5.95 110.45 -3.6 111.6 -1.85 114.05
L -0.4 114.05 -0.4 101.95 -1.85 101.95
Q -2.15 102.05 -2.55 102.15 -3 102.3 -3.5 102.3 -4.1 102.25 -5.3 101.95 -6.55 101.6 -8.55 101.3 -10.6 100.95 -13.65 100.9 -17.6 100.9 -20.65 102.45 -23.7 104 -25.45 106.9 -27.2 109.8 -27.25 113.9 -27.25 115.65 -26.65 117.3 -26.05 119 -25.05 120.3 -24.05 121.65 -22.75 122.4 -19.8 124 -17.1 125.55 -14.4 127.1 -12 128.6 -10.55 129.4 -9.7 130.2 -8.85 131 -8.85 132.65 -8.85 134.4 -10.55 135.5 -12.25 136.6 -15.5 136.65 -19.6 136.65 -22.25 135.5 -24.95 134.35 -26.75 131.9
L -27.95 132.1 -26.75 142.85
Q -23.95 143.85 -20.95 144.55 -17.9 145.25 -14.6 145.3 -10.6 145.3 -7.45 144.25 -4.3 143.25 -1.95 140.95 0.25 138.8 1.05 136.35
M 47.15 104.8
Q 47.8 103.5 49.35 103.2
L 49.35 101.95
Q 47.1 102 44.9 102.05 42.7 102.05 40.65 102.05 38.85 102.05 36.8 102.05 34.7 102 32.5 101.95
L 32.5 103.2
Q 33.95 103.75 34.55 105 35.2 106.25 35.3 108.3 35.45 110.35 35.4 113.35
L 35.4 124.1 9.1 100.9 7.55 100.9 7.55 132.8
Q 7.55 135.6 7.45 137.75 7.3 139.95 6.6 141.3 5.9 142.6 4.3 142.95
L 4.3 144.2
Q 6.45 144.15 8.6 144.1 10.8 144.1 13.05 144.1 15.05 144.1 17.15 144.1 19.2 144.15 21.35 144.2
L 21.35 142.95
Q 19.35 142.3 18.8 140.3 18.25 138.35 18.3 135.65 18.3 135 18.35 134.25 18.35 133.45 18.35 132.8
L 18.35 122.25 44.55 145.15 46.25 145.15 46.25 113.35
Q 46.2 110.55 46.35 108.35 46.5 106.15 47.15 104.8
M 66.5 108.25
Q 66.65 106.1 67.35 104.8 68 103.5 69.55 103.2
L 69.55 101.95
Q 67.25 102 65 102.05 62.75 102.05 60.65 102.05 58.55 102.05 56.2 102.05 53.85 102 51.35 101.95
L 51.35 103.2
Q 52.9 103.5 53.6 104.8 54.3 106.15 54.45 108.3 54.6 110.45 54.55 113.35
L 54.55 132.8
Q 54.6 135.65 54.45 137.85 54.3 140 53.6 141.3 52.9 142.65 51.35 142.95
L 51.35 144.2
Q 53.55 144.15 55.85 144.1 58.1 144.1 60.3 144.1 62.6 144.1 64.95 144.1 67.3 144.15 69.55 144.2
L 69.55 142.95
Q 68.05 142.65 67.35 141.4 66.65 140.1 66.5 137.9 66.3 135.7 66.35 132.8
L 66.35 113.35
Q 66.3 110.4 66.5 108.25
M 74.25 104.85
Q 74.95 106.25 75.1 108.45 75.2 110.6 75.15 113.3
L 75.15 132.8
Q 75.2 135.55 75.1 137.75 74.95 139.9 74.3 141.25 73.6 142.6 71.95 142.95
L 71.95 144.2
Q 74.75 144.1 77.4 144.1 80.1 144.1 82.65 144.1 84.6 144.1 86.55 144.1 88.45 144.15 90.25 144.2
L 90.25 142.95
Q 88.7 142.55 88 141.25 87.3 139.95 87.1 137.85 86.95 135.7 86.95 132.8
L 86.95 110.55
Q 87.75 110.45 88.5 110.4 89.25 110.35 89.95 110.35 92.95 110.4 94.65 111.8 96.35 113.2 96.4 115.4 96.4 118.05 95.05 119.4 93.75 120.75 91.15 120.75 90.7 120.75 90.3 120.6 89.95 120.55 89.7 120.45
L 88.4 120.85 90.9 129.7
Q 91.65 129.85 92.55 129.95 93.35 130.1 94.05 130.1 100.9 130.05 104.55 126.3 108.2 122.5 108.25 115.85 108.2 111.95 106.55 108.9 104.9 105.9 101.9 104.15 98.85 102.35 94.7 102.1 92.7 102.05 90.75 102 88.75 101.95 86.85 101.95
L 71.95 101.95 71.95 103.2
Q 73.55 103.5 74.25 104.85 Z"/>
</g>

<path id="Symbol_2_0_Layer6_0_1_STROKES" stroke="#FFFFFF" stroke-width="6" stroke-linejoin="round" stroke-linecap="round" fill="none" d="
M 1.05 -108.45
L 1.05 -92.2
Q 0.85 -92.2 0.7 -92.15 -30.8 -90.95 -53.45 -68.3 -76 -45.75 -77.25 -14.25 -77.25 -14.1 -77.25 -14 -77.3 -13.65 -77.3 -13.25
L -94.15 -13.25 -94.15 -6.75 -77.25 -6.75
Q -77.25 -6.5 -77.25 -6.25 -77.25 -5.85 -77.2 -5.5 -75.55 25.15 -53.45 47.3 -30.8 69.9 0.7 71.15 0.85 71.15 1.05 71.15
L 1.05 88.45 7.55 88.45 7.55 71.15
Q 8.4 71.1 9.2 71.1 40 69.45 62.15 47.3 84.3 25.15 86 -5.5 86 -6.1 86.05 -6.75
L 102.75 -6.75 102.75 -13.25 86.05 -13.25
Q 86.05 -13.65 86.05 -14 84.85 -45.65 62.15 -68.3 40 -90.5 9.2 -92.1 8.4 -92.15 7.55 -92.2
L 7.55 -108.45 1.05 -108.45 Z
M 9.05 -84.8
Q 8.4 -85.95 9.2 -85.9 37.4 -84.3 57.75 -63.9 78.6 -43.1 79.8 -14 79.8 -13.65 79.8 -13.25
L 46.25 -13.25 46.25 -6.75 79.8 -6.75
Q 79.75 -6.1 79.7 -5.5 78.05 22.55 57.75 42.9 37.4 63.2 9.2 64.85 8.4 64.85 7.55 64.9
L 7.55 31.95 1.05 31.95 1.05 64.9
Q 0.85 64.9 0.7 64.9 -28.25 63.65 -49.05 42.9 -69.35 22.55 -71 -5.5 -71 -5.85 -71.05 -6.25 -71.05 -6.5 -71.05 -6.75
L -37.65 -6.75 -37.65 -13.25 -71.1 -13.25
Q -71.1 -13.65 -71.05 -14 -71.05 -14.15 -71.05 -14.25 -69.8 -43.2 -49.05 -63.9 -28.25 -84.75 0.7 -85.95 0.85 -86 1.05 -86
L 1.05 -51.95 7.55 -51.95 9.05 -84.8 Z"/>

<path id="Symbol_2_0_Layer4_0_1_STROKES" stroke="#FFFFFF" stroke-width="6" stroke-linejoin="round" stroke-linecap="round" fill="none" d="
M 39.7 -65.5
Q 53.5 -34.4 23.95 -28.65 20.15 -32 18.7 -35.75 23.95 -33.2 29.8 -35.75 17.65 -41.75 11.8 -48.65 15.85 -49.15 25.3 -48.65 13.65 -55.75 1.05 -55.5 4.65 -57.25 10.55 -58.15 15.3 -62.2 17.8 -66.25 11.1 -63.95 -0.45 -63 -0.75 -62.1 -2.7 -61.5 -3.9 -60.8 -5.95 -61.5 -0.4 -65.4 8.05 -68.15 15.05 -76.6 15.45 -82.15 2.4 -68.35 -13.55 -65 -0.75 -72.6 3.45 -85.65 -8.75 -73.65 -21.55 -66.25
L -17.05 -77.9
Q -27.35 -64.85 -43.7 -54.4 -49.95 -39.7 -53.3 -47.9 -61 -35.9 -44.55 -25.5
L -44.55 -32.65
Q -34.15 -42.1 -21.3 -35.15 -21.2 -52.9 -13.05 -29.9 -17.1 -18.95 -30.8 -11.9 -26.7 -10.95 -25.55 -9.65 -26.3 -6.9 -29.45 -5.75 -20.95 1.25 -17.55 8.85 -24.7 10 -33.2 10.35 -56.05 38.85 -31.05 38.1 -41.5 31.85 -34.8 25.6 -33.65 34.4 -23.7 30.1 -26.35 30.15 -28.2 29 -26.75 22.15 -30.7 18.25 6.75 20.2 1.1 34.55 -28.05 36.95 -15.2 50.15 -17 41.35 -10.25 41.9 -14.5 46.9 -7.2 50.15 -8.5 48.75 -8.8 47.2 -8.15 46.8 -7.55 46.4 1.35 49.05 0.5 57.75 -19.6 69.15 -45.3 57.5 -40.45 62.1 -41.55 63.75 -50.85 57.35 -63.45 53.35 -59.25 58.6 -58.45 61.6 -69.25 54.85 -82.05 56.6 -76.6 59.15 -74.3 61.95 -90.55 60.55 -99.95 65 -91.75 65.3 -88.95 67 -91.6 69.5 -96.45 70.1 -108.65 71.35 -113.2 75.7 -111.4 75 -110.55 75.7 -122.6 83.3 -127.6 91.75 -124 88.95 -118.25 88.35 -110.45 87.75 -102.85 85.45 -93.9 82.4 -87.2 77.85 -93.3 79.15 -97.3 77.85 -76.2 67.05 -47.3 73.85 -50.7 76.15 -57.05 77.85 -44.7 80.1 -26.55 77.85 -28.6 81.05 -35.3 84.25 -22.65 83.8 -4.8 76.25 -6.65 80.3 -10.95 83.75 -2.05 82.45 18.45 69.6 17.8 74.7 15.2 79.75 21.3 77.1 29.55 64.75 30.7 64.25 31.8 66.6 35.2 61.75 36.45 55.5 38.2 57.45 38.75 63.45 43.8 55.3 45.95 38.85
L 52.3 43.25
Q 52.75 32.45 47.8 18.75 50.35 19.1 57.2 25 53.85 10.75 43.3 0.6 47.4 0.65 53.95 2.6 51.25 -2.8 44.7 -7.4 57.85 -2.4 67.05 4.6 66.4 -5.95 53.05 -14.15 62.55 -16.75 78.65 -16 108.55 11.8 106.95 54.6 117.85 21.1 104.6 -7.65 133.1 9.85 138.1 55.15 150.95 -51.45 41 -85.15 37.8 -91.35 60.2 -99.9 28.35 -100.1 30.3 -85.1 31.2 -81 39.7 -65.5 Z
M -32.55 -52.75
Q -35.2 -47.75 -40.95 -45.4 -39.2 -50.05 -32.55 -52.75 Z"/>

<path id="Symbol_2_0_Layer1_0_1_STROKES" stroke="#FFFFFF" stroke-width="7" stroke-linejoin="round" stroke-linecap="round" fill="none" d="
M 95.275 119.15
Q 95.1697265625 119.2802734375 95.05 119.4 93.75 120.75 91.15 120.75 90.7 120.75 90.3 120.6 89.95 120.55 89.7 120.45
L 88.4 120.85 90.9 129.7
Q 91.65 129.85 92.55 129.95 93.35 130.1 94.05 130.1 100.9 130.05 104.55 126.3 108.2 122.5 108.25 115.85 108.2 111.95 106.55 108.9 104.9 105.9 101.9 104.15 98.85 102.35 94.7 102.1 92.7 102.05 90.75 102 88.75 101.95 86.85 101.95
L 71.95 101.95 71.95 103.2
Q 73.0033203125 103.3974609375 73.675 104.05
M 67.875 104.05
Q 68.5123046875 103.40078125 69.55 103.2
L 69.55 101.95
Q 67.25 102 65 102.05 62.75 102.05 60.65 102.05 58.55 102.05 56.2 102.05 53.85 102 51.35 101.95
L 51.35 103.2
Q 52.3876953125 103.40078125 53.05 104.05
M 47.675 104.05
Q 48.3123046875 103.40078125 49.35 103.2
L 49.35 101.95
Q 47.1 102 44.9 102.05 42.7 102.05 40.65 102.05 38.85 102.05 36.8 102.05 34.7 102 32.5 101.95
L 32.5 103.2
Q 33.95 103.75 34.55 105 35.2 106.25 35.3 108.3 35.45 110.35 35.4 113.35
L 35.4 124.1 9.1 100.9 7.55 100.9 7.55 132.8
Q 7.55 135.6 7.45 137.75 7.3 139.95 6.6 141.3 5.9 142.6 4.3 142.95
L 4.3 144.2
Q 6.45 144.15 8.6 144.1 10.8 144.1 13.05 144.1 15.05 144.1 17.15 144.1 19.2 144.15 21.35 144.2
L 21.35 142.95
Q 19.35 142.3 18.8 140.3 18.25 138.35 18.3 135.65 18.3 135 18.35 134.25 18.35 133.45 18.35 132.8
L 18.35 122.25 44.55 145.15 46.25 145.15 46.25 142.25
M 52.85 142.25
Q 52.24765625 142.776171875 51.35 142.95
L 51.35 144.2
Q 53.55 144.15 55.85 144.1 58.1 144.1 60.3 144.1 62.6 144.1 64.95 144.1 67.3 144.15 69.55 144.2
L 69.55 142.95
Q 68.651953125 142.7703125 68.05 142.25
M 73.5 142.25
Q 72.86875 142.755078125 71.95 142.95
L 71.95 144.2
Q 74.75 144.1 77.4 144.1 80.1 144.1 82.65 144.1 84.6 144.1 86.55 144.1 88.45 144.15 90.25 144.2
L 90.25 142.95
Q 88.7 142.55 88 141.25 87.3 139.95 87.1 137.85 86.95 135.7 86.95 132.8
L 86.95 110.55
Q 87.75 110.45 88.5 110.4 89.25 110.35 89.95 110.35 92.95 110.4 94.65 111.8 94.9123046875 112.016015625 95.125 112.25
M -3.45 112.2
Q -2.5955078125 113.00625 -1.85 114.05
L -0.4 114.05 -0.4 101.95 -1.85 101.95
Q -2.15 102.05 -2.55 102.15 -3 102.3 -3.5 102.3 -4.1 102.25 -5.3 101.95 -6.55 101.6 -8.55 101.3 -10.6 100.95 -13.65 100.9 -17.6 100.9 -20.65 102.45 -23.7 104 -25.45 106.9 -27.2 109.8 -27.25 113.9 -27.25 115.65 -26.65 117.3 -26.05 119 -25.05 120.3 -24.05 121.65 -22.75 122.4 -19.8 124 -17.1 125.55 -14.4 127.1 -12 128.6 -10.55 129.4 -9.7 130.2 -8.85 131 -8.85 132.65 -8.85 134.4 -10.55 135.5 -12.25 136.6 -15.5 136.65 -19.6 136.65 -22.25 135.5 -24.95 134.35 -26.75 131.9
L -27.95 132.1 -26.75 142.85
Q -23.95 143.85 -20.95 144.55 -17.9 145.25 -14.6 145.3 -10.6 145.3 -7.45 144.25 -4.3 143.25 -1.95 140.95 0.25 138.8 1.05 136.35 1.85 133.9 1.85 130.75 1.8 126.85 -0.8 123.65 -2.5291015625 121.562109375 -5.25 119.9
M 125.8 117.6
L 125.8 111.05 136.4 111.05
Q 138.1 111.05 139 111.65 139.85 112.25 140.4 113.4
L 141.65 113.4 141.65 101.95 110.8 101.95 110.8 105.2
Q 112.45 103.5 112.4 105.125 112.35 106.75 112.475 108.925 112.6 111.1 114 113.35
L 114 132.7
Q 114.05 135.45 113.9 137.65 113.75 139.8 113 141.15 112.35 142.55 110.8 142.85
L 110.8 144.2 141.6 144.2 142.8 131.75 141.5 131.6
Q 141 133.4 139.3 134.25 137.6 135.05 133.95 135.05
L 133.95 129.3
Q 128 135.1 127.25 135 126.55 134.85 126.15 134.3 125.8 133.75 125.8 132.45
L 125.8 126.7 131.8 126.7
Q 133.2 126.7 134.3 126.8 135.4 126.85 136.25 127.35 137.15 127.9 137.7 129.2
L 139.05 129.2
Q 139 126.3 138.95 124 138.9 121.7 138.9 120.15 138.9 118.8 138.95 117.4 139 116.05 139.05 114.75
L 137.7 114.75
Q 137.1 116.4 135.65 117.05 134.25 117.6 131.55 117.6
L 125.8 117.6 Z
M 96 113.525
Q 96.376953125 114.381640625 96.4 115.4 96.4 116.8396484375 96 117.9
M -95.15 101.95
Q -95.35 102.25 -95.7 102.6 -96 102.9 -96.55 102.95 -97.2 102.9 -98.7 102.4 -100.2 101.9 -102.2 101.4 -104.2 100.9 -106.5 100.85 -109.5 100.8 -112.25 101.2 -114.95 101.55 -117.5 102.6 -120.05 103.65 -122.5 105.7 -125.1 107.8 -126.95 110.7 -128.75 113.55 -129.7 116.7 -130.65 119.9 -130.65 122.95 -130.65 129.15 -128.15 134.2 -125.6 139.2 -120.6 142.2 -115.65 145.2 -108.35 145.3 -103 145.3 -98.6 144.55 -94.2 143.75 -90.15 141.55
L -90.15 123.05 -105.15 123.05 -105.15 124.3
Q -103.15 124.65 -102.5 126.35 -101.85 128.05 -101.95 130.95
L -101.95 134.5
Q -102.85 135 -104.3 135.45 -105.75 135.9 -108.1 135.9 -111 135.9 -113.35 134.5 -115.75 133.15 -117.15 130.3 -118.6 127.4 -118.65 122.95 -118.6 120.45 -117.95 118.2 -117.3 115.95 -116.2 114.45 -114.6 112.2 -111.95 111.2 -109.35 110.2 -105.85 110.25 -102.25 110.2 -99.75 111.2 -97.2 112.15 -95.15 114.3
L -93.75 114.3 -93.75 101.95 -95.15 101.95 Z
M -88.05 144.2
Q -86.5 144.15 -84.95 144.1 -83.4 144.1 -82.1 144.1 -80.4 144.1 -78.55 144.1 -76.6 144.15 -74.55 144.2
L -74.55 142.95
Q -75.1 142.8 -75.45 142.45 -75.75 142.15 -75.8 141.7 -75.75 141 -75.55 140.2 -75.3 139.4 -75.05 138.65
L -70.9 124.25 -61.2 145.55 -59.25 145.55 -48.65 124.25 -45.55 136.85
Q -45.35 137.65 -45.15 138.5 -45 139.35 -44.95 139.95 -44.95 141.25 -45.35 141.9 -45.75 142.6 -46.4 142.95
L -46.4 144.2
Q -44.65 144.15 -42.85 144.1 -41.05 144.1 -39.4 144.1 -37.1 144.1 -34.7 144.1 -32.35 144.15 -30.1 144.2
L -30.1 142.95
Q -30.9 142.45 -31.6 141.7 -32.3 140.95 -32.7 139.85
L -45.25 99.45 -46.8 99.45 -59.55 125.7 -71.8 99.45 -73.5 99.45 -85.6 138.7
Q -86.15 140.55 -86.6 141.4 -87.05 142.3 -87.4 142.55 -87.8 142.85 -88.05 142.95
L -88.05 144.2 Z
M -12.6 116.25
Q -14.1109375 115.45234375 -15.4 114.55 -15.95 114.2 -16.1 113.7 -16.25 113.2 -16.25 112.55 -16.25 111.95 -15.8 111.25 -15.4 110.6 -14.8 110.1 -13.8 109.4 -12.85 109.35 -11.9 109.25 -11 109.25 -8.3 109.25 -5.95 110.45 -5.66328125 110.5904296875 -5.375 110.75"/>
</defs>

<g transform="matrix( 1.613525390625, 0, 0, 1.613525390625, 240.75,214.55) ">
<g transform="matrix( 1, 0, 0, 1, 0,0) ">
<use xlink:href="#Symbol_2_0_Layer6_0_FILL"/>

<use xlink:href="#Symbol_2_0_Layer6_0_1_STROKES"/>
</g>

<g transform="matrix( 1, 0, 0, 1, 0,0) ">
<use xlink:href="#Symbol_2_0_Layer5_0_FILL"/>
</g>

<g transform="matrix( 1, 0, 0, 1, 0,0) ">
<use xlink:href="#Symbol_2_0_Layer4_0_FILL"/>

<use xlink:href="#Symbol_2_0_Layer4_0_1_STROKES"/>
</g>

<g transform="matrix( 1, 0, 0, 1, 0,0) ">
<use xlink:href="#Symbol_2_0_Layer3_0_FILL"/>
</g>

<g transform="matrix( 1, 0, 0, 1, 0,0) ">
<use xlink:href="#Symbol_2_0_Layer2_0_FILL"/>
</g>

<g transform="matrix( 1, 0, 0, 1, 0,0) ">
<use xlink:href="#Symbol_2_0_Layer1_0_FILL"/>

<use xlink:href="#Symbol_2_0_Layer1_0_1_STROKES"/>
</g>

<g transform="matrix( 1, 0, 0, 1, 0,0) ">
<use xlink:href="#Symbol_2_0_Layer0_0_FILL"/>
</g>
</g>
</svg>
